<?xml version="1.0" standalone="no"?>
<!DOCTYPE svg PUBLIC "-//W3C//DTD SVG 20010904//EN"
 "http://www.w3.org/TR/2001/REC-SVG-20010904/DTD/svg10.dtd">
<svg version="1.0" xmlns="http://www.w3.org/2000/svg"
 width="700.000000pt" height="700.000000pt" viewBox="0 0 700.000000 700.000000"
 preserveAspectRatio="xMidYMid meet">
<metadata>
Created by potrace 1.14, written by Peter Selinger 2001-2017
</metadata>
<g transform="translate(0.000000,700.000000) scale(0.100000,-0.100000)"
fill="#000000" stroke="none">
<path d="M1053 6968 c-221 -189 -358 -442 -389 -719 -9 -81 -9 -5435 0 -5509
32 -261 174 -522 379 -699 l48 -41 2406 0 2406 0 36 27 c151 114 302 340 359
538 46 161 45 102 47 2385 l1 2165 -940 943 -941 942 -1687 0 -1687 0 -38 -32z
m2884 -991 c1 -378 6 -443 44 -558 85 -261 296 -476 549 -558 133 -44 189 -48
583 -49 192 0 350 -2 353 -4 2 -3 3 -750 2 -1661 l-3 -1655 -65 39 c-141 87
-345 180 -520 239 -94 31 -363 103 -430 114 -125 21 -303 48 -350 52 -30 3
-66 7 -79 9 -26 5 -261 18 -328 19 -44 1 -62 16 -20 16 72 2 249 43 357 84
219 82 399 200 565 370 185 190 312 411 380 661 14 50 27 108 31 130 3 22 10
60 14 85 9 44 6 361 -4 410 -2 14 -7 41 -11 60 -31 173 -102 357 -203 525 -43
71 -33 58 -125 170 -210 255 -495 435 -811 510 -147 36 -183 39 -366 39 -188
0 -222 -4 -367 -39 -601 -145 -1066 -662 -1151 -1279 -9 -67 -9 -347 0 -411
65 -444 304 -824 675 -1071 183 -122 428 -216 626 -239 71 -8 74 -20 5 -21
-320 -5 -731 -65 -1023 -150 -267 -78 -440 -152 -693 -300 l-42 -25 0 2334 c0
1708 3 2344 11 2368 26 76 92 134 169 147 23 4 533 7 1133 7 l1092 0 2 -368z
m-553 -4006 c-9 -9 -34 -9 -34 -1 0 5 9 8 20 7 10 -1 17 -3 14 -6z"/>
</g>
</svg>
