<svg width="118" height="39" viewBox="0 0 118 39" fill="none" xmlns="http://www.w3.org/2000/svg">
<path d="M3.32417 0.0124246C2.77875 -0.0743647 2.26624 0.297431 2.17945 0.842854L0.765134 9.73103C0.678345 10.2765 1.05014 10.789 1.59556 10.8758C2.14099 10.9625 2.6535 10.5907 2.74028 10.0453L3.99745 2.14472L11.8981 3.40189C12.4435 3.48868 12.956 3.11688 13.0428 2.57146C13.1296 2.02604 12.7578 1.51353 12.2123 1.42674L3.32417 0.0124246ZM52.269 26.9948C52.8184 26.9385 53.2181 26.4474 53.1618 25.898C53.1055 25.3486 52.6144 24.9489 52.065 25.0052L52.269 26.9948ZM3.16702 1C2.35758 1.5872 2.35787 1.5876 2.35823 1.58809C2.35845 1.5884 2.35889 1.58901 2.35934 1.58962C2.36024 1.59086 2.36145 1.59251 2.36296 1.59459C2.36599 1.59874 2.37026 1.60458 2.37576 1.61207C2.38676 1.62705 2.40268 1.64864 2.42348 1.67662C2.46507 1.73258 2.52619 1.81411 2.60646 1.91941C2.767 2.12998 3.00422 2.43567 3.31523 2.82206C3.93718 3.59473 4.85475 4.69075 6.04493 5.99462C8.42399 8.60093 11.8993 12.0455 16.2871 15.399C25.0478 22.0949 37.5492 28.504 52.269 26.9948L52.065 25.0052C38.0576 26.4414 26.0591 20.3505 17.5016 13.81C13.2302 10.5454 9.84189 7.18767 7.52208 4.64627C6.36282 3.37628 5.47216 2.31208 4.87322 1.56799C4.57379 1.196 4.34741 0.904178 4.19696 0.706835C4.12173 0.608169 4.06551 0.533137 4.02863 0.48353C4.0102 0.458727 3.9966 0.440281 3.98789 0.428418C3.98354 0.422486 3.9804 0.418199 3.9785 0.415587C3.97754 0.41428 3.9769 0.413393 3.97656 0.412926C3.97639 0.412693 3.97636 0.412661 3.97628 0.412544C3.97633 0.412618 3.97646 0.412798 3.16702 1Z" fill="black"/>
<path d="M61.984 28.48C61.984 29.3867 61.552 30.1653 60.688 30.816C59.824 31.4667 58.8373 31.792 57.728 31.792C56.6187 31.792 55.7227 31.52 55.04 30.976C54.368 30.4213 54.032 29.8507 54.032 29.264C54.032 28.6773 54.1973 28.384 54.528 28.384C54.784 28.384 55.0507 28.512 55.328 28.768C55.6053 29.024 55.9147 29.28 56.256 29.536C56.608 29.792 57.0027 29.92 57.44 29.92C57.8773 29.92 58.3733 29.7387 58.928 29.376C59.4827 29.0133 59.76 28.7093 59.76 28.464C59.76 28.2187 59.456 27.808 58.848 27.232C58.2507 26.656 57.648 26.064 57.04 25.456C56.4427 24.8373 56.144 24.3627 56.144 24.032C56.144 23.6907 56.2027 23.3227 56.32 22.928C56.448 22.5333 56.6027 22.2613 56.784 22.112C57.36 21.5467 58.1013 21.0613 59.008 20.656C59.9253 20.24 60.7307 20.032 61.424 20.032C61.8293 20.032 62.1653 20.208 62.432 20.56C62.6987 20.9013 62.832 21.2587 62.832 21.632C62.832 21.7813 62.7093 21.904 62.464 22C62.2293 22.0853 61.8827 22.176 61.424 22.272C60.976 22.368 60.5173 22.5067 60.048 22.688C58.96 23.0933 58.416 23.4347 58.416 23.712C58.416 23.84 58.6027 24.0747 58.976 24.416C59.3493 24.7467 59.7547 25.0987 60.192 25.472C60.64 25.8347 61.0507 26.2987 61.424 26.864C61.7973 27.4187 61.984 27.9573 61.984 28.48ZM70.0281 27.264C70.2201 27.4347 70.3161 27.5893 70.3161 27.728C70.3161 27.8667 70.2521 28.1547 70.1241 28.592C69.9961 29.0293 69.9108 29.3707 69.8681 29.616C69.8255 29.8507 69.7881 30.0373 69.7561 30.176C69.7348 30.3147 69.7188 30.4267 69.7081 30.512C69.6975 30.5867 69.6761 30.6827 69.6441 30.8C69.6228 30.9173 69.6015 31.0133 69.5801 31.088C69.5695 31.152 69.5481 31.232 69.5161 31.328C69.4948 31.4133 69.4681 31.4827 69.4361 31.536C69.4041 31.5787 69.3668 31.6267 69.3241 31.68C69.2601 31.7653 69.1535 31.808 69.0041 31.808C68.8548 31.808 68.6681 31.6587 68.4441 31.36C68.2308 31.0613 68.0708 30.6987 67.9641 30.272C66.9615 31.296 66.1188 31.808 65.4361 31.808C64.9775 31.808 64.4815 31.5573 63.9481 31.056C63.4148 30.544 63.1481 30.0373 63.1481 29.536C63.1481 29.024 63.3775 28.2987 63.8361 27.36C64.2948 26.4213 64.9188 25.552 65.7081 24.752C66.5081 23.952 67.2975 23.552 68.0761 23.552C68.5241 23.552 69.0415 23.8133 69.6281 24.336C70.2148 24.8587 70.5081 25.3387 70.5081 25.776C70.5081 26.2027 70.3481 26.6987 70.0281 27.264ZM65.3721 29.792C65.7988 29.792 66.3641 29.504 67.0681 28.928C67.7828 28.3413 68.2255 27.6053 68.3961 26.72C68.4068 26.592 68.4975 26.5173 68.6681 26.496C68.6361 25.888 68.5348 25.584 68.3641 25.584C67.9375 25.584 67.4575 25.8613 66.9241 26.416C66.4015 26.9707 65.9695 27.5627 65.6281 28.192C65.2975 28.8213 65.1321 29.2853 65.1321 29.584C65.1321 29.6693 65.1428 29.728 65.1641 29.76C65.1961 29.7813 65.2655 29.792 65.3721 29.792ZM77.3524 23.952C77.4164 23.6853 77.5924 23.552 77.8804 23.552C78.1684 23.552 78.4617 23.7333 78.7604 24.096C79.0697 24.4587 79.2244 24.8693 79.2244 25.328C79.2244 25.5947 79.1284 26.016 78.9364 26.592C78.7444 27.168 78.6057 27.5787 78.5204 27.824C78.4457 28.0693 78.3337 28.4053 78.1844 28.832C78.035 29.248 77.8964 29.6373 77.7684 30C77.651 30.352 77.4857 30.8267 77.2724 31.424C77.0697 32.0213 76.883 32.576 76.7124 33.088C76.3817 34.048 75.9764 34.7893 75.4964 35.312C75.027 35.8347 74.4137 36.096 73.6564 36.096C72.899 36.096 72.2217 35.8933 71.6244 35.488C71.027 35.0933 70.7284 34.6933 70.7284 34.288C70.7284 34.0427 70.835 33.7707 71.0484 33.472C71.2724 33.1733 71.459 33.024 71.6084 33.024C71.7684 33.024 71.971 33.1467 72.2164 33.392C72.4724 33.648 72.7337 33.8987 73.0004 34.144C73.267 34.4 73.5017 34.528 73.7044 34.528C73.843 34.528 73.955 34.464 74.0404 34.336C74.1364 34.208 74.211 34.0907 74.2644 33.984C74.3284 33.888 74.3924 33.7493 74.4564 33.568C74.5204 33.3973 74.579 33.2373 74.6324 33.088C74.6857 32.9387 74.7497 32.7413 74.8244 32.496C74.899 32.2507 74.963 32.032 75.0164 31.84C75.1977 31.264 75.3524 30.752 75.4804 30.304C75.1284 30.7627 74.7657 31.1307 74.3924 31.408C74.019 31.6747 73.6724 31.808 73.3524 31.808C73.043 31.808 72.6537 31.5733 72.1844 31.104C71.7257 30.624 71.4964 30.1013 71.4964 29.536C71.4964 28.96 71.619 28.192 71.8644 27.232C72.1204 26.272 72.435 25.4187 72.8084 24.672C73.1817 23.9253 73.5124 23.552 73.8004 23.552C74.131 23.552 74.4404 23.696 74.7284 23.984C75.027 24.2613 75.1764 24.5333 75.1764 24.8C75.1764 25.056 75.043 25.472 74.7764 26.048C74.5204 26.624 74.259 27.2533 73.9924 27.936C73.7257 28.6187 73.5924 29.2 73.5924 29.68C73.5924 29.744 73.619 29.776 73.6724 29.776C73.811 29.776 74.1044 29.52 74.5524 29.008C75.0004 28.4853 75.5017 27.7493 76.0564 26.8C76.6217 25.84 77.0537 24.8907 77.3524 23.952ZM87.8531 19.744C87.8531 19.296 88.0291 19.072 88.3811 19.072C88.6691 19.072 88.9998 19.312 89.3731 19.792C89.7465 20.272 89.9331 20.6827 89.9331 21.024C89.9331 21.3653 89.8638 21.8453 89.7251 22.464C89.5865 23.0827 89.4425 23.648 89.2931 24.16C89.1545 24.672 88.9411 25.4027 88.6531 26.352C88.3651 27.2907 88.1678 27.9467 88.0611 28.32C88.7545 26.912 89.4851 25.7653 90.2531 24.88C91.0318 23.9947 91.6825 23.552 92.2051 23.552C92.5358 23.552 92.9145 23.8453 93.3411 24.432C93.7678 25.008 93.9811 25.5307 93.9811 26C93.9811 26.4587 93.8958 27.1307 93.7251 28.016C93.5545 28.9013 93.2558 29.7547 92.8291 30.576C92.4025 31.3973 91.9651 31.808 91.5171 31.808C91.1651 31.808 90.9891 31.5573 90.9891 31.056C90.9891 30.6933 91.0958 30.1013 91.3091 29.28C91.6185 28.0533 91.7731 27.3067 91.7731 27.04C91.7731 26.7733 91.7305 26.64 91.6451 26.64C91.0265 26.64 90.1198 27.6693 88.9251 29.728C88.5198 30.432 88.1785 30.9547 87.9011 31.296C87.6345 31.6373 87.3785 31.808 87.1331 31.808C86.8878 31.808 86.5891 31.6107 86.2371 31.216C85.8958 30.8213 85.7251 30.5173 85.7251 30.304C85.7251 30.08 85.7678 29.7547 85.8531 29.328C85.9491 28.9013 86.0878 28.2933 86.2691 27.504C86.4611 26.7147 86.7705 25.2853 87.1971 23.216C87.6345 21.136 87.8531 19.9787 87.8531 19.744ZM96.4368 21.552C96.4368 21.2747 96.5594 20.992 96.8048 20.704C97.0608 20.4053 97.3061 20.256 97.5408 20.256C97.7861 20.256 98.0741 20.544 98.4048 21.12C98.7354 21.696 98.9008 22.1173 98.9008 22.384C98.9008 22.64 98.8154 22.8373 98.6448 22.976C98.4741 23.1147 98.2981 23.184 98.1168 23.184C97.8074 23.184 97.4501 22.9813 97.0448 22.576C96.6394 22.1707 96.4368 21.8293 96.4368 21.552ZM96.6768 23.552C97.0501 23.552 97.3808 23.7653 97.6688 24.192C97.9674 24.6187 98.1168 25.0293 98.1168 25.424C98.1168 25.6267 97.9301 26.3573 97.5568 27.616C97.1941 28.864 96.8314 30.048 96.4688 31.168C96.3408 31.584 96.0794 31.792 95.6848 31.792C95.4501 31.792 95.2421 31.7067 95.0608 31.536C94.8901 31.3547 94.8048 31.1253 94.8048 30.848C94.8048 30.56 94.9381 29.856 95.2048 28.736C95.4821 27.6053 95.6901 26.6453 95.8288 25.856C95.9781 25.056 96.1114 24.4747 96.2288 24.112C96.3568 23.7387 96.5061 23.552 96.6768 23.552ZM100.321 30.384C100.321 30.096 100.444 29.8133 100.689 29.536C100.934 29.248 101.18 29.104 101.425 29.104C101.67 29.104 101.953 29.392 102.273 29.968C102.604 30.544 102.769 30.976 102.769 31.264C102.769 31.4027 102.678 31.5573 102.497 31.728C102.326 31.8987 102.156 31.984 101.985 31.984C101.665 31.984 101.308 31.7867 100.913 31.392C100.518 30.9973 100.321 30.6613 100.321 30.384ZM101.969 19.296C101.969 18.9867 102.134 18.832 102.465 18.832C102.796 18.832 103.233 19.0667 103.777 19.536C104.332 20.0053 104.609 20.3467 104.609 20.56C104.609 21.264 104.358 22.72 103.857 24.928C103.366 27.1253 102.94 28.224 102.577 28.224C102.289 28.224 102.006 28.0747 101.729 27.776C101.452 27.4773 101.308 27.168 101.297 26.848C101.276 26.7307 101.318 26.3893 101.425 25.824C101.532 25.248 101.649 24.368 101.777 23.184C101.905 21.9893 101.969 20.6933 101.969 19.296Z" fill="black"/>
</svg>
